<?xml version="1.0" encoding="UTF-8" standalone="no"?>
<svg
   width="60"
   height="60"
   viewBox="0 0 100 100"
   fill="none"
   version="1.1"
   id="svg2"
   sodipodi:docname="portfolio_logo.svg"
   inkscape:version="1.4 (e7c3feb1, 2024-10-09)"
   xml:space="preserve"
   xmlns:inkscape="http://www.inkscape.org/namespaces/inkscape"
   xmlns:sodipodi="http://sodipodi.sourceforge.net/DTD/sodipodi-0.dtd"
   xmlns="http://www.w3.org/2000/svg"
   xmlns:svg="http://www.w3.org/2000/svg"><defs
     id="defs2" /><sodipodi:namedview
     id="namedview2"
     pagecolor="#ffffff"
     bordercolor="#999999"
     borderopacity="1"
     inkscape:showpageshadow="0"
     inkscape:pageopacity="0"
     inkscape:pagecheckerboard="0"
     inkscape:deskcolor="#d1d1d1"
     inkscape:zoom="10.047784"
     inkscape:cx="29.956854"
     inkscape:cy="29.956854"
     inkscape:window-width="1328"
     inkscape:window-height="791"
     inkscape:window-x="6"
     inkscape:window-y="25"
     inkscape:window-maximized="0"
     inkscape:current-layer="svg2" /><rect
     x="10"
     y="10"
     width="80"
     height="80"
     rx="16"
     fill="#003366"
     id="rect1"
     style="fill:#004a93;fill-opacity:1" /><path
     d="m 18.523656,30.187432 19.79657,18.21621 -19.79657,18.216211"
     stroke="#ffffff"
     strokeWidth="5"
     strokeLinecap="round"
     strokeLinejoin="round"
     id="path1"
     style="stroke-width:4.90453;stroke-dasharray:none;stroke-dashoffset:0" /><rect
     style="fill:#ffffff;stroke-width:1.93154"
     id="rect2"
     width="43.899849"
     height="4.4698024"
     x="36.396965"
     y="75.507736"
     ry="0" /><style
     type="text/css"
     id="style1">

	.st0{fill:#4B4B4B;}

</style><g
     style="opacity:1"
     id="g3"
     transform="matrix(0.08356161,0,0,0.10288133,42.280671,14.38967)"><g
       id="g1">
	<path
   class="st0"
   d="m 473.818,0.003 c 0,0 -18.578,28.297 -139.938,70.172 -123.719,42.688 -199.875,216.406 -199.875,216.406 -18.344,35.578 -90.813,183.453 -90.813,183.453 -19.953,38.172 16.625,60.734 38.063,21.313 41.156,-75.703 67.688,-144.875 130.25,-146.844 91.219,-2.875 153.609,-84.109 133.984,-80.359 -25.844,11.484 -82.781,0.875 -49.234,-4.391 80.531,-6.594 130.125,-68.297 113.969,-72.5 -28.563,11.219 -55.172,0.578 -60.391,-2.656 C 491.959,166.987 473.818,0.003 473.818,0.003 Z"
   style="fill:#ffffff"
   id="path1-1" />
</g></g></svg>
